<?xml version="1.0" encoding="utf-8"?>
<!-- Generator: Adobe Illustrator 28.1.0, SVG Export Plug-In . SVG Version: 6.00 Build 0)  -->
<svg version="1.1" id="Layer_1" xmlns="http://www.w3.org/2000/svg" xmlns:xlink="http://www.w3.org/1999/xlink" x="0px" y="0px"
	 viewBox="0 0 384 384" enable-background="new 0 0 384 384" xml:space="preserve">
<path d="M103.5,0c-0.1,10.7-0.3,21.5-0.3,32.2c0,0.8,1,1.9,1.8,2.3c6.6,2.6,13.2,5.1,20.3,7.8c7.3-7.3,15.2-15.3,22.8-22.9
	c5.6,5.5,10.8,10.7,16.2,16c-7.7,7.6-15.6,15.5-22.9,22.8c2.8,7.3,5.2,14,8,20.5c0.4,0.9,2.1,1.8,3.3,1.8c8.9,0.2,17.7,0.1,26.6,0.1
	c1.4,0,2.7,0,4.3,0c0,7.6,0,14.9,0,22.6c-11.4,0-22.6,0-33,0c-3.2,7.6-6.1,14.6-9.2,22.1c7.5,7.4,15.4,15.3,23.2,23
	c-5.6,5.5-10.7,10.7-16,15.9c-7.5-7.6-15.3-15.5-22.6-22.8c-7.6,2.9-14.4,5.3-21.2,8.1c-0.8,0.3-1.5,2.1-1.5,3.2
	c-0.1,8.9-0.1,17.7-0.1,26.6c0,1.4,0,2.7,0,4.3c-7.6,0-14.7,0-22.3,0c-0.1-1.3-0.2-2.6-0.2-4c0-8.9-0.1-17.7,0-26.6
	c0-2.3-0.6-3.3-3-4.1c-6.3-2.1-12.5-4.8-19.4-7.5c-7.3,7.4-15.2,15.4-22.9,23.1c-5.4-5.4-10.5-10.5-15.5-15.5
	c7.7-7.6,15.6-15.5,23.1-22.8c-3.4-8.2-6.4-15.2-9.8-23.3c-10.4,0-21.8,0-33.1,0c0-7.5,0-15,0-22.5c10.7,0.1,21.4,0.2,32.2,0.2
	c0.8,0,2-0.7,2.2-1.3c2.7-6.8,5.2-13.6,8.2-21.6c-7.2-7.1-15.2-14.9-22.8-22.2c5.3-5.3,10.4-10.4,16.1-16
	c7.6,7.6,15.5,15.5,22.8,22.9c7-2.6,13.6-5.1,20.1-7.7c0.8-0.3,1.7-1.5,1.7-2.3c0-10.7-0.1-21.4-0.3-32.1C88,0,95.8,0,103.5,0z
	 M92.1,55.5c-19.9-0.1-36.3,16.1-36.5,36c-0.2,20,16.3,36.6,36.3,36.6c19.8,0,36.3-16.4,36.3-36.2C128.2,72,111.9,55.6,92.1,55.5z
	 M285,384c-4.6-0.9-9.3-1.6-13.9-2.7c-37.6-9.3-62.6-38.7-67.4-77.1c-5.4-43.2,24.5-85.2,65.1-96c6.6-1.7,13.3-3,20.2-4.6
	c-11.7,33-5.1,61.4,20.9,83.8c21.9,18.9,47.4,21.2,74.1,10.4c0,0.5,0,1,0,1.5c-1,4-2.1,7.9-3,11.9c-7.8,32.7-26,56.6-58.5,68
	c-6.8,2.4-14,3.3-21,4.9C296,384,290.5,384,285,384z M262.2,235.3c-21.6,6.9-39.3,39.3-36.3,66.2c3.6,31.9,29.4,57.4,60.9,59.9
	c27.6,2.3,59.1-15.3,65.2-36.3C303.1,325,262.2,284.2,262.2,235.3z M55.2,314.4c4.9,4.9,10,10.1,14.6,14.6
	c86.4-86.4,173.1-173.1,259.7-259.7c-4.7-4.7-9.8-9.9-14.6-14.6C228.2,141.4,141.4,228.2,55.2,314.4z"/>
</svg>
