<?xml version="1.0" encoding="utf-8"?>
<!-- Generator: Adobe Illustrator 28.1.0, SVG Export Plug-In . SVG Version: 6.00 Build 0)  -->
<svg version="1.1" id="Layer_1" xmlns="http://www.w3.org/2000/svg" xmlns:xlink="http://www.w3.org/1999/xlink" x="0px" y="0px"
	 viewBox="0 0 384 384" enable-background="new 0 0 384 384" xml:space="preserve">
<path d="M0,197.2c0-3.5,0-7,0-10.5c2.3-11.4,9.7-19.2,17.6-27.1c47.6-47.3,95-94.8,142.4-142.4c7.8-7.8,15.6-15.1,26.8-17.3
	c3.5,0,7,0,10.5,0c11.4,2.3,19.4,9.5,27.1,17.5c10.5,10.9,21.3,21.4,32,32.2c0.9,0.9,1.4,2.4,2.1,3.6c0.5-0.4,1.1-0.7,1.6-1.1
	c0-1.3,0-2.6,0-3.9c0-11.2,0.2-22.5-0.1-33.7C259.7,7.6,262,2.7,268.5,0c18,0,36,0,54,0c6.4,3.1,8.3,8.2,8.3,15.2
	c-0.2,35.1-0.1,70.2-0.2,105.3c0,2.6,0.8,4.4,2.6,6.2c11.4,11.2,22.5,22.7,34,33.8c8,7.7,14.9,15.7,16.8,27.1c0,3,0,6,0,9
	c-0.3,0.9-0.5,1.9-0.8,2.8c-3.9,15.1-13.4,24.5-28.7,27.5c-3.7,0.7-7.6,0.5-11.8,0.7c0,1.5,0,3,0,4.5c0,36.6,0.1,73.2,0,109.7
	c0,19-11.4,34.7-28.8,40.3c-2.3,0.7-4.7,1.3-7.1,2c-27,0-54,0-81,0c-6.7-2.5-9-7.3-9-14.3c0.2-25.8,0.1-51.7,0.1-77.5
	c0-1.4,0-2.9,0-4.4c-16.8,0-33.1,0-49.7,0c0,1.8,0,3.2,0,4.7c0,25.7-0.1,51.4,0.1,77.2c0,6.9-2.3,11.8-9,14.3c-27,0-54,0-81,0
	c-0.3-0.2-0.6-0.5-0.9-0.6c-17.4-2.2-35.4-18.3-35.1-43.3c0.4-36.2,0.1-72.4,0.1-108.6c0-1.4,0-2.8,0-4.2c-1.9,0-3.1,0-4.4,0
	c-17.7,0.5-32.2-10.8-36.1-28.1C0.6,198.6,0.3,197.9,0,197.2z M239.3,361.5c20.1,0,39.6,0,59.1,0c14.3,0,21.8-7.4,21.8-21.6
	c0-40.6,0-81.2,0.1-121.9c0-3-0.8-5.1-2.9-7.2c-40.9-40.8-81.7-81.6-122.5-122.4c-0.9-0.9-1.8-1.6-2.8-2.6c-0.9,0.8-1.7,1.4-2.3,2.1
	c-41.3,41.3-82.6,82.5-123.7,123.9c-1.2,1.2-2,3.4-2.1,5.2c-0.1,41.2-0.1,82.5-0.1,123.7c0,13,7.7,20.8,20.7,20.8
	c18.7,0,37.5,0,56.2,0c1.2,0,2.4-0.1,3.9-0.2c0-1.7,0-3.2,0-4.7c0-26,0-52,0-78c0-9.4,4.1-13.5,13.5-13.5c22.5,0,45,0,67.5,0
	c9.7,0,13.7,4.1,13.7,13.6c0,26,0,52,0,78C239.3,358.1,239.3,359.6,239.3,361.5z M35.4,204.9c4.5,0.1,7.7-2.2,10.8-5.3
	c45.2-45.3,90.5-90.5,135.7-135.8c7.3-7.3,12.9-7.3,20.2-0.1c45.1,45.1,90.1,90.1,135.2,135.2c1.1,1.1,2.1,2.2,3.2,3.1
	c7.1,5.7,17.6,2.4,20.3-6.3c1.9-6.2-0.9-10.8-5.1-15C304.8,129.9,253.9,79,203,28.1c-7.6-7.6-14.4-7.6-22,0
	C130.1,79,79.2,129.9,28.3,180.8c-1.1,1.1-2.2,2.1-3.1,3.3c-3.2,4.3-3.8,8.9-1.3,13.7C26.3,202.4,30.2,204.8,35.4,204.9z
	 M307.9,101.4c0-26.8,0-52.7,0-78.6c-8.6,0-16.9,0-25.4,0c0,17.3,0,34.4,0,51.5c0,0.9,0.5,2,1.1,2.6
	C291.5,84.9,299.4,92.8,307.9,101.4z"/>
</svg>
