<?xml version="1.0" encoding="utf-8"?>
<!-- Generator: Adobe Illustrator 28.1.0, SVG Export Plug-In . SVG Version: 6.00 Build 0)  -->
<svg version="1.1" id="Layer_1" xmlns="http://www.w3.org/2000/svg" xmlns:xlink="http://www.w3.org/1999/xlink" x="0px" y="0px"
	 viewBox="0 0 256 256" style="enable-background:new 0 0 256 256;" xml:space="preserve">
<path d="M72,232H32c-4.4,0-8-3.6-8-8v-40c0-2.1,0.8-4.2,2.3-5.7l57.6-57.6c-2.6-8-4-16.3-3.9-24.8c0-44.1,35.9-80,80-80
	s80,35.9,80,80s-35.9,80-80,80c-0.1,0-0.2,0-0.3,0c-8.4,0-16.6-1.3-24.5-3.9l-9.6,9.6c-1.5,1.5-3.5,2.3-5.7,2.3h-16v16
	c0,4.4-3.6,8-8,8H80v16C80,228.4,76.4,232,72,232z M40,216h24v-16c0-4.4,3.6-8,8-8h16v-16c0-4.4,3.6-8,8-8h20.7l10.9-10.9
	c2.3-2.3,5.7-3,8.7-1.8c7.5,3.1,15.4,4.6,23.5,4.6c0.1,0,0.2,0,0.2,0c35.3,0,64-28.7,64-64c0-35.3-28.7-64-64-64
	c-35.3,0-64,28.7-64,64c0,8.2,1.5,16.2,4.6,23.8c1.2,3,0.5,6.4-1.8,8.7L40,187.3V216z M180,64c6.6,0,12,5.4,12,12s-5.4,12-12,12
	s-12-5.4-12-12S173.4,64,180,64z"/>
</svg>
