<?xml version="1.0" encoding="utf-8"?>
<!-- Generator: Adobe Illustrator 28.1.0, SVG Export Plug-In . SVG Version: 6.00 Build 0)  -->
<svg version="1.1" id="Layer_1" xmlns="http://www.w3.org/2000/svg" xmlns:xlink="http://www.w3.org/1999/xlink" x="0px" y="0px"
	 viewBox="0 0 281 281" enable-background="new 0 0 281 281" xml:space="preserve">
<path d="M254.1,54.2c-17.9-17.3-39.3-27.8-64-31.4c-2.1,0-3.3-1.2-3.5-3.6C184.6,6.4,178.5,0,168.1,0
	c-5,0-9.2,2.6-12.7,7.7c-3.5,5.2-5.9,9.1-7.1,11.8c-1.7,3.3-3.3,5-5,5c-6.6,0.6-12.6,1.8-18,3.4c-5.4,1.7-9.6,3.1-12.4,4.3
	c-3.5,1.8-7,4.7-10.3,8.7c-3.3,3.9-5,8.7-5,14.1c0,6.1,1.4,11,4.1,14.8c2.7,3.8,5.5,4.6,8.3,2.5c2.8-2.4,6-4.8,9.6-7.1
	c3.5-2.3,7.5-3.7,12-4.3c2.8,0,3.7,1.5,2.5,4.6c-1.2,4.3-3.6,12.7-7.3,25.3c-1.1,3.8-2.2,7.7-3.3,11.7c-5-4.1-10.6-7.5-16.9-9.9
	C72,79.1,46.5,55.8,31.1,21.7c-0.7-1.5-0.6-3.8-3.3-4.2c-2.6,20.8,5,38.3,17.2,54.2C56.7,87,71.5,98.9,86.8,110
	c13.5,9.8,13.6,9.8,9.5,25.5c-0.5,2.1-1.1,4.2-1.5,6.3c-3.8,19.7-4.4,39.2,2,58.6c0.2,0.7,0.4,1.2,0.7,1.7c-0.2,1-0.3,1.9-0.5,2.8
	c-0.4,1.7-0.7,3.3-1,4.9c-0.9-2.6-2.2-5.1-2.6-6.4c-8.5-24.7-8.4-49.5-0.4-74.2c2.1-6.3,0.2-8.2-5-10.9C50.3,99,19.4,73.1,7,30.4
	c-0.5,0.1-0.9,0.2-1,0.3c-0.4,1-1,1.9-1.2,2.9c-4.8,21.2-1.6,41,10.7,59c12.9,18.8,30.7,31.8,50.8,42.1c1.9,1,4,1.8,5.7,3.1
	c1.7,1.3,1.5,3.6,0.7,5.3c-1,2.2-2.8,0.6-4.1,0.1c-25.1-11-47-25.8-61.5-49.8C4.9,89.8,3.1,86.1,0.4,81
	c-1.7,17.4,2.6,31.3,11.3,43.9c11,16,26.3,27.2,43.3,35.9c4.6,2.4,9.3,4.3,14,6.4c3.7,1.7,3.1,5.3,2.2,7.7c-1.1,2.8-3.7,0.4-5.4-0.3
	c-19.8-8.2-37.3-19.7-51.4-36c-3.5-4-6.5-8.5-10.8-14.1c0.5,3.6,0.7,5.4,1,7.1c0.4,2.1,0.8,4.3,1.4,6.3
	c7.8,26.6,26.7,43.9,48.7,58.8c5,3.4,31.4,21.1,38.8,21.1c0.4,0,0.7,0,1.1-0.1c-1.7,10.7-2.1,18.9-1.1,24.5
	c1.6,11.5,6.5,20.9,14.5,28c8,7.1,14.5,10.7,19.5,10.7c8.7,0,19.5-1.7,32.4-5c12.9-3.3,24.9-8.8,36.3-16.4
	c3.8-2.4,10.3-7.9,19.6-16.4c9.3-8.5,18.8-19.3,28.5-32.3c9.7-13.1,18.2-28.2,25.6-45.3c7.4-17.1,11.1-35.7,11.1-55.8
	C281,90,272,71.5,254.1,54.2z M230,160.5c-7.3,15.3-16,29.3-26,41.9c-10,12.6-20.2,22.8-30.6,30.7c-10.4,7.9-18.6,11.8-24.8,11.8
	c-3.5,0-7.1-2.7-10.6-8.2c-4-6.4-3.7-19.4,1.1-39.2c3.1-15.5,8.3-37.1,15.7-64.9c7.4-27.8,14-49.9,19.6-66.3
	c1.2-4.9,3.5-7.1,7.1-6.8c14.4,0.3,27.9,4.8,40.5,13.4c12.6,8.7,18.9,22.7,18.9,42.1C241,130.1,237.3,145.2,230,160.5z"/>
</svg>
