<?xml version="1.0" encoding="utf-8"?>
<!-- Generator: Adobe Illustrator 28.1.0, SVG Export Plug-In . SVG Version: 6.00 Build 0)  -->
<svg version="1.1" id="Layer_1" xmlns="http://www.w3.org/2000/svg" xmlns:xlink="http://www.w3.org/1999/xlink" x="0px" y="0px"
	 viewBox="0 0 512 512" enable-background="new 0 0 512 512" xml:space="preserve">
<rect y="0.2" fill="#F5F5F5" width="511.5" height="511.5"/>
<path fill="#FF4B55" d="M0,393.7h512V433H0V393.7z M0,511.8h512v-39.3H0V511.8z M0,354.4h512V315H0V354.4z M275.4,0.2v39.3H512V0.2
	H275.4z M275.4,118.3H512V78.9H275.4V118.3z M275.4,197H512v-39.3H275.4V197z M275.4,275.4H512V236H275.4V275.4z"/>
<path fill="#41479B" d="M0,0.2v275.4h275.4V0.2H0z M44.6,244.1l-5.4,4l2,6.4c0.3,0.8-0.7,1.5-1.4,1l-5.5-3.9l-5.5,3.9
	c-0.7,0.5-1.6-0.2-1.4-1l2-6.4l-5.4-4c-0.7-0.5-0.3-1.6,0.5-1.6l6.7-0.1l2.1-6.4c0.3-0.8,1.4-0.8,1.7,0l2.1,6.4l6.7,0.1
	C44.9,242.5,45.3,243.6,44.6,244.1z M44.6,194.9l-5.4,4l2,6.4c0.3,0.8-0.7,1.5-1.4,1l-5.5-3.9l-5.5,3.9c-0.7,0.5-1.6-0.2-1.4-1
	l2-6.4l-5.4-4c-0.7-0.5-0.3-1.6,0.5-1.6l6.7-0.1l2.1-6.4c0.3-0.8,1.4-0.8,1.7,0l2.1,6.4l6.7,0.1C44.9,193.3,45.3,194.4,44.6,194.9z
	 M44.6,140.8l-5.4,4l2,6.4c0.3,0.8-0.7,1.5-1.4,1l-5.5-3.9l-5.5,3.9c-0.7,0.5-1.6-0.2-1.4-1l2-6.4l-5.4-4c-0.7-0.5-0.3-1.6,0.5-1.6
	l6.7-0.1l2.1-6.4c0.3-0.8,1.4-0.8,1.7,0l2.1,6.4l6.7,0.1C44.9,139.2,45.3,140.3,44.6,140.8z M44.6,81.9l-5.4,4l2,6.4
	c0.3,0.8-0.7,1.5-1.4,1l-5.5-3.9l-5.5,3.9c-0.7,0.5-1.6-0.2-1.4-1l2-6.4l-5.4-4c-0.7-0.5-0.3-1.6,0.5-1.6l6.7-0.1l2.1-6.4
	c0.3-0.8,1.4-0.8,1.7,0l2.1,6.4l6.7,0.1C44.9,80.3,45.3,81.4,44.6,81.9z M44.6,28.9l-5.4,4l2,6.4c0.3,0.8-0.7,1.5-1.4,1l-5.5-3.9
	l-5.5,3.9c-0.7,0.5-1.6-0.2-1.4-1l2-6.4l-5.4-4c-0.7-0.5-0.3-1.6,0.5-1.6l6.7-0.1l2.1-6.4c0.3-0.8,1.4-0.8,1.7,0l2.1,6.4l6.7,0.1
	C44.9,27.2,45.3,28.3,44.6,28.9z M70.4,219.1l-5.4,4l2,6.4c0.3,0.8-0.7,1.5-1.4,1l-5.5-3.9l-5.5,3.9c-0.7,0.5-1.6-0.2-1.4-1l2-6.4
	l-5.4-4c-0.7-0.5-0.3-1.6,0.5-1.6l6.7-0.1l2.1-6.4c0.3-0.8,1.4-0.8,1.7,0l2.1,6.4l6.7,0.1C70.8,217.4,71.1,218.5,70.4,219.1z
	 M70.4,168.8l-5.4,4l2,6.4c0.3,0.8-0.7,1.5-1.4,1l-5.5-3.9l-5.5,3.9c-0.7,0.5-1.6-0.2-1.4-1l2-6.4l-5.4-4c-0.7-0.5-0.3-1.6,0.5-1.6
	l6.7-0.1l2.1-6.4c0.3-0.8,1.4-0.8,1.7,0l2.1,6.4l6.7,0.1C70.8,167.2,71.1,168.3,70.4,168.8z M70.4,112.9l-5.4,4l2,6.4
	c0.3,0.8-0.7,1.5-1.4,1l-5.5-3.9l-5.5,3.9c-0.7,0.5-1.6-0.2-1.4-1l2-6.4l-5.4-4c-0.7-0.5-0.3-1.6,0.5-1.6l6.7-0.1l2.1-6.4
	c0.3-0.8,1.4-0.8,1.7,0l2.1,6.4l6.7,0.1C70.8,111.3,71.1,112.4,70.4,112.9z M70.4,54L65,58l2,6.4c0.3,0.8-0.7,1.5-1.4,1l-5.5-3.9
	l-5.5,3.9c-0.7,0.5-1.6-0.2-1.4-1l2-6.4L50,54c-0.7-0.5-0.3-1.6,0.5-1.6l6.7-0.1l2.1-6.4c0.3-0.8,1.4-0.8,1.7,0l2.1,6.4l6.7,0.1
	C70.8,52.4,71.1,53.5,70.4,54z M96.3,244.1l-5.4,4l2,6.4c0.3,0.8-0.7,1.5-1.4,1l-5.5-3.9l-5.5,3.9c-0.7,0.5-1.6-0.2-1.4-1l2-6.4
	l-5.4-4c-0.7-0.5-0.3-1.6,0.5-1.6l6.7-0.1l2.1-6.4c0.3-0.8,1.4-0.8,1.7,0l2.1,6.4l6.7,0.1C96.6,242.5,97,243.6,96.3,244.1z
	 M96.3,194.9l-5.4,4l2,6.4c0.3,0.8-0.7,1.5-1.4,1l-5.5-3.9l-5.5,3.9c-0.7,0.5-1.6-0.2-1.4-1l2-6.4l-5.4-4c-0.7-0.5-0.3-1.6,0.5-1.6
	l6.7-0.1l2.1-6.4c0.3-0.8,1.4-0.8,1.7,0l2.1,6.4l6.7,0.1C96.6,193.3,97,194.4,96.3,194.9z M96.3,140.8l-5.4,4l2,6.4
	c0.3,0.8-0.7,1.5-1.4,1l-5.5-3.9l-5.5,3.9c-0.7,0.5-1.6-0.2-1.4-1l2-6.4l-5.4-4c-0.7-0.5-0.3-1.6,0.5-1.6l6.7-0.1l2.1-6.4
	c0.3-0.8,1.4-0.8,1.7,0l2.1,6.4l6.7,0.1C96.6,139.2,97,140.3,96.3,140.8z M96.3,81.9l-5.4,4l2,6.4c0.3,0.8-0.7,1.5-1.4,1L86,89.4
	l-5.5,3.9c-0.7,0.5-1.6-0.2-1.4-1l2-6.4l-5.4-4c-0.7-0.5-0.3-1.6,0.5-1.6l6.7-0.1l2.1-6.4c0.3-0.8,1.4-0.8,1.7,0l2.1,6.4l6.7,0.1
	C96.6,80.3,97,81.4,96.3,81.9z M96.3,28.9l-5.4,4l2,6.4c0.3,0.8-0.7,1.5-1.4,1L86,36.3l-5.5,3.9c-0.7,0.5-1.6-0.2-1.4-1l2-6.4
	l-5.4-4c-0.7-0.5-0.3-1.6,0.5-1.6l6.7-0.1l2.1-6.4c0.3-0.8,1.4-0.8,1.7,0l2.1,6.4l6.7,0.1C96.6,27.2,97,28.3,96.3,28.9z
	 M122.1,219.1l-5.4,4l2,6.4c0.3,0.8-0.7,1.5-1.4,1l-5.5-3.9l-5.5,3.9c-0.7,0.5-1.6-0.2-1.4-1l2-6.4l-5.4-4c-0.7-0.5-0.3-1.6,0.5-1.6
	l6.7-0.1l2.1-6.4c0.3-0.8,1.4-0.8,1.7,0l2.1,6.4l6.7,0.1C122.4,217.4,122.8,218.5,122.1,219.1z M122.1,168.8l-5.4,4l2,6.4
	c0.3,0.8-0.7,1.5-1.4,1l-5.5-3.9l-5.5,3.9c-0.7,0.5-1.6-0.2-1.4-1l2-6.4l-5.4-4c-0.7-0.5-0.3-1.6,0.5-1.6l6.7-0.1l2.1-6.4
	c0.3-0.8,1.4-0.8,1.7,0l2.1,6.4l6.7,0.1C122.4,167.2,122.8,168.3,122.1,168.8z M122.1,112.9l-5.4,4l2,6.4c0.3,0.8-0.7,1.5-1.4,1
	l-5.5-3.9l-5.5,3.9c-0.7,0.5-1.6-0.2-1.4-1l2-6.4l-5.4-4c-0.7-0.5-0.3-1.6,0.5-1.6l6.7-0.1l2.1-6.4c0.3-0.8,1.4-0.8,1.7,0l2.1,6.4
	l6.7,0.1C122.4,111.3,122.8,112.4,122.1,112.9z M122.1,54l-5.4,4l2,6.4c0.3,0.8-0.7,1.5-1.4,1l-5.5-3.9l-5.5,3.9
	c-0.7,0.5-1.6-0.2-1.4-1l2-6.4l-5.4-4c-0.7-0.5-0.3-1.6,0.5-1.6l6.7-0.1L111,46c0.3-0.8,1.4-0.8,1.7,0l2.1,6.4l6.7,0.1
	C122.4,52.4,122.8,53.5,122.1,54z M147.9,244.1l-5.4,4l2,6.4c0.3,0.8-0.7,1.5-1.4,1l-5.5-3.9l-5.5,3.9c-0.7,0.5-1.6-0.2-1.4-1l2-6.4
	l-5.4-4c-0.7-0.5-0.3-1.6,0.5-1.6l6.7-0.1l2.1-6.4c0.3-0.8,1.4-0.8,1.7,0l2.1,6.4l6.7,0.1C148.3,242.5,148.6,243.6,147.9,244.1z
	 M147.9,194.9l-5.4,4l2,6.4c0.3,0.8-0.7,1.5-1.4,1l-5.5-3.9l-5.5,3.9c-0.7,0.5-1.6-0.2-1.4-1l2-6.4l-5.4-4c-0.7-0.5-0.3-1.6,0.5-1.6
	l6.7-0.1l2.1-6.4c0.3-0.8,1.4-0.8,1.7,0l2.1,6.4l6.7,0.1C148.3,193.3,148.6,194.4,147.9,194.9z M147.9,140.8l-5.4,4l2,6.4
	c0.3,0.8-0.7,1.5-1.4,1l-5.5-3.9l-5.5,3.9c-0.7,0.5-1.6-0.2-1.4-1l2-6.4l-5.4-4c-0.7-0.5-0.3-1.6,0.5-1.6l6.7-0.1l2.1-6.4
	c0.3-0.8,1.4-0.8,1.7,0l2.1,6.4l6.7,0.1C148.3,139.2,148.6,140.3,147.9,140.8z M147.9,81.9l-5.4,4l2,6.4c0.3,0.8-0.7,1.5-1.4,1
	l-5.5-3.9l-5.5,3.9c-0.7,0.5-1.6-0.2-1.4-1l2-6.4l-5.4-4c-0.7-0.5-0.3-1.6,0.5-1.6l6.7-0.1l2.1-6.4c0.3-0.8,1.4-0.8,1.7,0l2.1,6.4
	l6.7,0.1C148.3,80.3,148.6,81.4,147.9,81.9z M147.9,28.9l-5.4,4l2,6.4c0.3,0.8-0.7,1.5-1.4,1l-5.5-3.9l-5.5,3.9
	c-0.7,0.5-1.6-0.2-1.4-1l2-6.4l-5.4-4c-0.7-0.5-0.3-1.6,0.5-1.6l6.7-0.1l2.1-6.4c0.3-0.8,1.4-0.8,1.7,0l2.1,6.4l6.7,0.1
	C148.3,27.2,148.6,28.3,147.9,28.9z M173.8,219.1l-5.4,4l2,6.4c0.3,0.8-0.7,1.5-1.4,1l-5.5-3.9l-5.5,3.9c-0.7,0.5-1.6-0.2-1.4-1
	l2-6.4l-5.4-4c-0.7-0.5-0.3-1.6,0.5-1.6l6.7-0.1l2.1-6.4c0.3-0.8,1.4-0.8,1.7,0l2.1,6.4l6.7,0.1
	C174.1,217.4,174.5,218.5,173.8,219.1z M173.8,168.8l-5.4,4l2,6.4c0.3,0.8-0.7,1.5-1.4,1l-5.5-3.9l-5.5,3.9c-0.7,0.5-1.6-0.2-1.4-1
	l2-6.4l-5.4-4c-0.7-0.5-0.3-1.6,0.5-1.6l6.7-0.1l2.1-6.4c0.3-0.8,1.4-0.8,1.7,0l2.1,6.4l6.7,0.1
	C174.1,167.2,174.5,168.3,173.8,168.8z M173.8,112.9l-5.4,4l2,6.4c0.3,0.8-0.7,1.5-1.4,1l-5.5-3.9l-5.5,3.9c-0.7,0.5-1.6-0.2-1.4-1
	l2-6.4l-5.4-4c-0.7-0.5-0.3-1.6,0.5-1.6l6.7-0.1l2.1-6.4c0.3-0.8,1.4-0.8,1.7,0l2.1,6.4l6.7,0.1
	C174.1,111.3,174.5,112.4,173.8,112.9z M173.8,54l-5.4,4l2,6.4c0.3,0.8-0.7,1.5-1.4,1l-5.5-3.9l-5.5,3.9c-0.7,0.5-1.6-0.2-1.4-1
	l2-6.4l-5.4-4c-0.7-0.5-0.3-1.6,0.5-1.6l6.7-0.1l2.1-6.4c0.3-0.8,1.4-0.8,1.7,0l2.1,6.4l6.7,0.1C174.1,52.4,174.5,53.5,173.8,54z
	 M199.6,244.1l-5.4,4l2,6.4c0.3,0.8-0.7,1.5-1.4,1l-5.5-3.9l-5.5,3.9c-0.7,0.5-1.6-0.2-1.4-1l2-6.4l-5.4-4c-0.7-0.5-0.3-1.6,0.5-1.6
	l6.7-0.1l2.1-6.4c0.3-0.8,1.4-0.8,1.7,0l2.1,6.4l6.7,0.1C200,242.5,200.3,243.6,199.6,244.1z M199.6,194.9l-5.4,4l2,6.4
	c0.3,0.8-0.7,1.5-1.4,1l-5.5-3.9l-5.5,3.9c-0.7,0.5-1.6-0.2-1.4-1l2-6.4l-5.4-4c-0.7-0.5-0.3-1.6,0.5-1.6l6.7-0.1l2.1-6.4
	c0.3-0.8,1.4-0.8,1.7,0l2.1,6.4l6.7,0.1C200,193.3,200.3,194.4,199.6,194.9z M199.6,140.8l-5.4,4l2,6.4c0.3,0.8-0.7,1.5-1.4,1
	l-5.5-3.9l-5.5,3.9c-0.7,0.5-1.6-0.2-1.4-1l2-6.4l-5.4-4c-0.7-0.5-0.3-1.6,0.5-1.6l6.7-0.1l2.1-6.4c0.3-0.8,1.4-0.8,1.7,0l2.1,6.4
	l6.7,0.1C200,139.2,200.3,140.3,199.6,140.8z M199.6,81.9l-5.4,4l2,6.4c0.3,0.8-0.7,1.5-1.4,1l-5.5-3.9l-5.5,3.9
	c-0.7,0.5-1.6-0.2-1.4-1l2-6.4l-5.4-4c-0.7-0.5-0.3-1.6,0.5-1.6l6.7-0.1l2.1-6.4c0.3-0.8,1.4-0.8,1.7,0l2.1,6.4l6.7,0.1
	C200,80.3,200.3,81.4,199.6,81.9z M199.6,28.9l-5.4,4l2,6.4c0.3,0.8-0.7,1.5-1.4,1l-5.5-3.9l-5.5,3.9c-0.7,0.5-1.6-0.2-1.4-1l2-6.4
	l-5.4-4c-0.7-0.5-0.3-1.6,0.5-1.6l6.7-0.1l2.1-6.4c0.3-0.8,1.4-0.8,1.7,0l2.1,6.4l6.7,0.1C200,27.2,200.3,28.3,199.6,28.9z
	 M225.5,219.1l-5.4,4l2,6.4c0.3,0.8-0.7,1.5-1.4,1l-5.5-3.9l-5.5,3.9c-0.7,0.5-1.6-0.2-1.4-1l2-6.4l-5.4-4c-0.7-0.5-0.3-1.6,0.5-1.6
	l6.7-0.1l2.1-6.4c0.3-0.8,1.4-0.8,1.7,0l2.1,6.4l6.7,0.1C225.8,217.4,226.2,218.5,225.5,219.1z M225.5,168.8l-5.4,4l2,6.4
	c0.3,0.8-0.7,1.5-1.4,1l-5.5-3.9l-5.5,3.9c-0.7,0.5-1.6-0.2-1.4-1l2-6.4l-5.4-4c-0.7-0.5-0.3-1.6,0.5-1.6l6.7-0.1l2.1-6.4
	c0.3-0.8,1.4-0.8,1.7,0l2.1,6.4l6.7,0.1C225.8,167.2,226.2,168.3,225.5,168.8z M225.5,112.9l-5.4,4l2,6.4c0.3,0.8-0.7,1.5-1.4,1
	l-5.5-3.9l-5.5,3.9c-0.7,0.5-1.6-0.2-1.4-1l2-6.4l-5.4-4c-0.7-0.5-0.3-1.6,0.5-1.6l6.7-0.1l2.1-6.4c0.3-0.8,1.4-0.8,1.7,0l2.1,6.4
	l6.7,0.1C225.8,111.3,226.2,112.4,225.5,112.9z M225.5,54l-5.4,4l2,6.4c0.3,0.8-0.7,1.5-1.4,1l-5.5-3.9l-5.5,3.9
	c-0.7,0.5-1.6-0.2-1.4-1l2-6.4l-5.4-4c-0.7-0.5-0.3-1.6,0.5-1.6l6.7-0.1l2.1-6.4c0.3-0.8,1.4-0.8,1.7,0l2.1,6.4l6.7,0.1
	C225.8,52.4,226.2,53.5,225.5,54z M251.3,244.1l-5.4,4l2,6.4c0.3,0.8-0.7,1.5-1.4,1l-5.5-3.9l-5.5,3.9c-0.7,0.5-1.6-0.2-1.4-1l2-6.4
	l-5.4-4c-0.7-0.5-0.3-1.6,0.5-1.6l6.7-0.1l2.1-6.4c0.3-0.8,1.4-0.8,1.7,0l2.1,6.4l6.7,0.1C251.6,242.5,252,243.6,251.3,244.1z
	 M251.3,194.9l-5.4,4l2,6.4c0.3,0.8-0.7,1.5-1.4,1l-5.5-3.9l-5.5,3.9c-0.7,0.5-1.6-0.2-1.4-1l2-6.4l-5.4-4c-0.7-0.5-0.3-1.6,0.5-1.6
	l6.7-0.1l2.1-6.4c0.3-0.8,1.4-0.8,1.7,0l2.1,6.4l6.7,0.1C251.6,193.3,252,194.4,251.3,194.9z M251.3,140.8l-5.4,4l2,6.4
	c0.3,0.8-0.7,1.5-1.4,1l-5.5-3.9l-5.5,3.9c-0.7,0.5-1.6-0.2-1.4-1l2-6.4l-5.4-4c-0.7-0.5-0.3-1.6,0.5-1.6l6.7-0.1l2.1-6.4
	c0.3-0.8,1.4-0.8,1.7,0l2.1,6.4l6.7,0.1C251.6,139.2,252,140.3,251.3,140.8z M251.3,81.9l-5.4,4l2,6.4c0.3,0.8-0.7,1.5-1.4,1
	l-5.5-3.9l-5.5,3.9c-0.7,0.5-1.6-0.2-1.4-1l2-6.4l-5.4-4c-0.7-0.5-0.3-1.6,0.5-1.6l6.7-0.1l2.1-6.4c0.3-0.8,1.4-0.8,1.7,0l2.1,6.4
	l6.7,0.1C251.6,80.3,252,81.4,251.3,81.9z M251.3,28.9l-5.4,4l2,6.4c0.3,0.8-0.7,1.5-1.4,1l-5.5-3.9l-5.5,3.9
	c-0.7,0.5-1.6-0.2-1.4-1l2-6.4l-5.4-4c-0.7-0.5-0.3-1.6,0.5-1.6l6.7-0.1l2.1-6.4c0.3-0.8,1.4-0.8,1.7,0l2.1,6.4l6.7,0.1
	C251.6,27.2,252,28.3,251.3,28.9z"/>
</svg>
